<svg preserveAspectRatio="none" overflow="visible" style="display: block;" width="20" height="20" viewBox="0 0 20 20" fill="none" xmlns="http://www.w3.org/2000/svg">
<g id="Cross 1">
<path id="Vector" d="M10 1.9375C14.4457 1.9375 18.0625 5.55431 18.0625 10C18.0625 14.4457 14.4457 18.0625 10 18.0625C5.55431 18.0625 1.9375 14.4457 1.9375 10C1.9375 5.55431 5.55431 1.9375 10 1.9375ZM10 3.0625C6.17486 3.0625 3.0625 6.17486 3.0625 10C3.0625 13.8251 6.17486 16.9375 10 16.9375C13.8251 16.9375 16.9375 13.8251 16.9375 10C16.9375 6.17486 13.8251 3.0625 10 3.0625ZM12.1016 7.10254C12.3184 6.88675 12.6657 6.8842 12.8857 7.09277L12.8955 7.10254C13.1148 7.32298 13.1146 7.67919 12.8955 7.89844L10.793 10.001L12.8955 12.1035C13.1149 12.3239 13.1146 12.6802 12.8955 12.8994C12.7858 13.0091 12.6414 13.0644 12.498 13.0645C12.3547 13.0645 12.2103 13.0092 12.1006 12.8994L9.99805 10.7969L7.89551 12.8994C7.7858 13.0091 7.6414 13.0644 7.49805 13.0645C7.35465 13.0645 7.21033 13.0092 7.10059 12.8994C6.88116 12.6789 6.88133 12.3228 7.10059 12.1035L9.20312 10.001L7.10059 7.89844C6.90854 7.70551 6.88434 7.40854 7.02832 7.19043L7.10059 7.10254C7.32106 6.88318 7.67725 6.8833 7.89648 7.10254L9.99902 9.20508L12.1016 7.10254Z" fill="#F43333" stroke="#5D5D5D" stroke-width="0.125"/>
</g>
</svg>
