<svg preserveAspectRatio="none" overflow="visible" style="display: block;" width="16" height="16" viewBox="0 0 16 16" fill="none" xmlns="http://www.w3.org/2000/svg">
<g id="Right Icon">
<g id="Vector">
<mask id="path-1-inside-1_0_415" fill="white">
<path d="M12 7.5H8.5V4C8.5 3.72417 8.27583 3.5 8 3.5C7.72417 3.5 7.5 3.72417 7.5 4V7.5H4C3.72417 7.5 3.5 7.72417 3.5 8C3.5 8.27583 3.72417 8.5 4 8.5H7.5V12C7.5 12.2758 7.72417 12.5 8 12.5C8.27583 12.5 8.5 12.2758 8.5 12V8.5H12C12.2758 8.5 12.5 8.27583 12.5 8C12.5 7.72417 12.2758 7.5 12 7.5Z"/>
</mask>
<path d="M12 7.5H8.5V4C8.5 3.72417 8.27583 3.5 8 3.5C7.72417 3.5 7.5 3.72417 7.5 4V7.5H4C3.72417 7.5 3.5 7.72417 3.5 8C3.5 8.27583 3.72417 8.5 4 8.5H7.5V12C7.5 12.2758 7.72417 12.5 8 12.5C8.27583 12.5 8.5 12.2758 8.5 12V8.5H12C12.2758 8.5 12.5 8.27583 12.5 8C12.5 7.72417 12.2758 7.5 12 7.5Z" fill="#0E0E0E"/>
<path d="M8.5 7.5H7.5V8.5H8.5V7.5ZM7.5 7.5V8.5H8.5V7.5H7.5ZM7.5 8.5H8.5V7.5H7.5V8.5ZM8.5 8.5V7.5H7.5V8.5H8.5ZM12 7.5V6.5H8.5V7.5V8.5H12V7.5ZM8.5 7.5H9.5V4H8.5H7.5V7.5H8.5ZM8.5 4H9.5C9.5 3.17188 8.82812 2.5 8 2.5V3.5V4.5C7.72355 4.5 7.5 4.27645 7.5 4H8.5ZM8 3.5V2.5C7.17188 2.5 6.5 3.17188 6.5 4H7.5H8.5C8.5 4.27645 8.27645 4.5 8 4.5V3.5ZM7.5 4H6.5V7.5H7.5H8.5V4H7.5ZM7.5 7.5V6.5H4V7.5V8.5H7.5V7.5ZM4 7.5V6.5C3.17188 6.5 2.5 7.17188 2.5 8H3.5H4.5C4.5 8.27645 4.27645 8.5 4 8.5V7.5ZM3.5 8H2.5C2.5 8.82812 3.17188 9.5 4 9.5V8.5V7.5C4.27645 7.5 4.5 7.72355 4.5 8H3.5ZM4 8.5V9.5H7.5V8.5V7.5H4V8.5ZM7.5 8.5H6.5V12H7.5H8.5V8.5H7.5ZM7.5 12H6.5C6.5 12.8281 7.17188 13.5 8 13.5V12.5V11.5C8.27645 11.5 8.5 11.7235 8.5 12H7.5ZM8 12.5V13.5C8.82812 13.5 9.5 12.8281 9.5 12H8.5H7.5C7.5 11.7235 7.72355 11.5 8 11.5V12.5ZM8.5 12H9.5V8.5H8.5H7.5V12H8.5ZM8.5 8.5V9.5H12V8.5V7.5H8.5V8.5ZM12 8.5V9.5C12.8281 9.5 13.5 8.82812 13.5 8H12.5H11.5C11.5 7.72355 11.7235 7.5 12 7.5V8.5ZM12.5 8H13.5C13.5 7.17188 12.8281 6.5 12 6.5V7.5V8.5C11.7235 8.5 11.5 8.27645 11.5 8H12.5Z" fill="#0057FF" mask="url(#path-1-inside-1_0_415)"/>
</g>
</g>
</svg>
